<mxfile host="app.diagrams.net" modified="2021-06-21T17:44:13.680Z" agent="5.0 (Windows NT 10.0; Win64; x64) AppleWebKit/537.36 (KHTML, like Gecko) Chrome/91.0.4472.114 Safari/537.36" etag="F5b4v4JQZ-eB5VYRAjAu" version="14.8.0" type="github">
  <diagram id="WyMy_GPYxkQ1iz0fMnS5" name="Page-1">
    <mxGraphModel dx="1483" dy="940" grid="1" gridSize="10" guides="1" tooltips="1" connect="1" arrows="1" fold="1" page="1" pageScale="1" pageWidth="1100" pageHeight="850" math="0" shadow="0">
      <root>
        <mxCell id="0" />
        <mxCell id="1" parent="0" />
        <mxCell id="0ezOhvrhTtO55987Je5w-53" style="edgeStyle=orthogonalEdgeStyle;rounded=0;orthogonalLoop=1;jettySize=auto;html=1;exitX=1;exitY=0.5;exitDx=0;exitDy=0;entryX=0;entryY=0.5;entryDx=0;entryDy=0;entryPerimeter=0;fontSize=14;fontColor=#000000;strokeWidth=3;" parent="1" source="0ezOhvrhTtO55987Je5w-46" target="0ezOhvrhTtO55987Je5w-50" edge="1">
          <mxGeometry relative="1" as="geometry" />
        </mxCell>
        <mxCell id="0ezOhvrhTtO55987Je5w-67" style="edgeStyle=orthogonalEdgeStyle;rounded=0;orthogonalLoop=1;jettySize=auto;html=1;entryX=0;entryY=0.5;entryDx=0;entryDy=0;entryPerimeter=0;labelBackgroundColor=none;fontSize=14;fontColor=#000000;fillColor=#96F5FF;strokeWidth=3;" parent="1" source="0ezOhvrhTtO55987Je5w-46" target="0ezOhvrhTtO55987Je5w-52" edge="1">
          <mxGeometry relative="1" as="geometry" />
        </mxCell>
        <mxCell id="0ezOhvrhTtO55987Je5w-46" value="" style="whiteSpace=wrap;html=1;aspect=fixed;rounded=0;shadow=0;glass=0;sketch=0;fontSize=17;strokeWidth=2;fillColor=none;" parent="1" vertex="1">
          <mxGeometry x="10" y="315" width="220" height="220" as="geometry" />
        </mxCell>
        <mxCell id="0ezOhvrhTtO55987Je5w-4" value="&lt;font style=&quot;font-size: 40px;&quot;&gt;Source&lt;/font&gt;" style="text;html=1;align=center;verticalAlign=middle;resizable=0;points=[];autosize=1;strokeColor=none;fontSize=40;" parent="1" vertex="1">
          <mxGeometry x="170" y="75" width="140" height="50" as="geometry" />
        </mxCell>
        <mxCell id="0ezOhvrhTtO55987Je5w-34" style="edgeStyle=orthogonalEdgeStyle;rounded=0;orthogonalLoop=1;jettySize=auto;html=1;fontSize=17;fontColor=#000000;strokeWidth=3;" parent="1" source="0ezOhvrhTtO55987Je5w-10" target="0ezOhvrhTtO55987Je5w-29" edge="1">
          <mxGeometry relative="1" as="geometry" />
        </mxCell>
        <mxCell id="0ezOhvrhTtO55987Je5w-10" value="" style="outlineConnect=0;fontColor=#232F3E;gradientColor=none;fillColor=#232F3E;strokeColor=none;dashed=0;verticalLabelPosition=bottom;verticalAlign=top;align=center;html=1;fontSize=12;fontStyle=0;aspect=fixed;pointerEvents=1;shape=mxgraph.aws4.user;" parent="1" vertex="1">
          <mxGeometry x="76.11" y="190" width="80" height="80" as="geometry" />
        </mxCell>
        <mxCell id="0ezOhvrhTtO55987Je5w-29" value="" style="outlineConnect=0;gradientColor=none;fontColor=#545B64;strokeColor=none;dashed=0;verticalLabelPosition=bottom;verticalAlign=top;align=center;html=1;fontSize=12;fontStyle=0;aspect=fixed;shape=mxgraph.aws4.illustration_desktop;pointerEvents=1;glass=1;strokeWidth=2;fillColor=#000000;" parent="1" vertex="1">
          <mxGeometry x="47.43" y="335" width="137.36" height="125" as="geometry" />
        </mxCell>
        <mxCell id="0ezOhvrhTtO55987Je5w-30" value="&lt;font style=&quot;font-size: 25px&quot;&gt;Lamoda&lt;/font&gt;" style="text;html=1;align=center;verticalAlign=middle;resizable=0;points=[];autosize=1;strokeColor=none;fontSize=17;fontColor=#000000;" parent="1" vertex="1">
          <mxGeometry x="65" y="365" width="110" height="30" as="geometry" />
        </mxCell>
        <mxCell id="0ezOhvrhTtO55987Je5w-47" value="&lt;font style=&quot;font-size: 18px&quot;&gt;item 1&lt;/font&gt;" style="text;html=1;align=center;verticalAlign=middle;resizable=0;points=[];autosize=1;strokeColor=none;fontSize=14;fontColor=#000000;" parent="1" vertex="1">
          <mxGeometry x="22.81" y="495" width="60" height="20" as="geometry" />
        </mxCell>
        <mxCell id="0ezOhvrhTtO55987Je5w-48" value="&lt;font style=&quot;font-size: 18px&quot;&gt;item 2&lt;/font&gt;" style="text;html=1;align=center;verticalAlign=middle;resizable=0;points=[];autosize=1;strokeColor=none;fontSize=14;fontColor=#000000;" parent="1" vertex="1">
          <mxGeometry x="90" y="495" width="60" height="20" as="geometry" />
        </mxCell>
        <mxCell id="0ezOhvrhTtO55987Je5w-49" value="&lt;font style=&quot;font-size: 18px&quot;&gt;item n&lt;/font&gt;" style="text;html=1;align=center;verticalAlign=middle;resizable=0;points=[];autosize=1;strokeColor=none;fontSize=14;fontColor=#000000;" parent="1" vertex="1">
          <mxGeometry x="160" y="495" width="60" height="20" as="geometry" />
        </mxCell>
        <mxCell id="0ezOhvrhTtO55987Je5w-74" style="edgeStyle=orthogonalEdgeStyle;rounded=0;orthogonalLoop=1;jettySize=auto;html=1;exitX=1;exitY=0.5;exitDx=0;exitDy=0;exitPerimeter=0;entryX=0;entryY=0;entryDx=0;entryDy=52.5;entryPerimeter=0;labelBackgroundColor=none;fontSize=14;fontColor=#000000;fillColor=#96F5FF;strokeWidth=3;" parent="1" source="0ezOhvrhTtO55987Je5w-50" target="0ezOhvrhTtO55987Je5w-61" edge="1">
          <mxGeometry relative="1" as="geometry">
            <Array as="points">
              <mxPoint x="410" y="270" />
              <mxPoint x="410" y="387" />
            </Array>
          </mxGeometry>
        </mxCell>
        <mxCell id="0ezOhvrhTtO55987Je5w-50" value="&lt;font style=&quot;font-size: 20px&quot;&gt;продажи&lt;/font&gt;" style="shape=cylinder3;whiteSpace=wrap;html=1;boundedLbl=1;backgroundOutline=1;size=6.5999755859375;rounded=0;shadow=0;glass=0;sketch=0;fontSize=14;strokeWidth=2;fillColor=#dae8fc;strokeColor=#6c8ebf;" parent="1" vertex="1">
          <mxGeometry x="270" y="225" width="90" height="90" as="geometry" />
        </mxCell>
        <mxCell id="0ezOhvrhTtO55987Je5w-64" style="edgeStyle=orthogonalEdgeStyle;orthogonalLoop=1;jettySize=auto;html=1;entryX=0;entryY=0.5;entryDx=0;entryDy=0;entryPerimeter=0;fontSize=17;fontColor=#000000;rounded=0;strokeWidth=3;" parent="1" source="0ezOhvrhTtO55987Je5w-51" target="0ezOhvrhTtO55987Je5w-61" edge="1">
          <mxGeometry relative="1" as="geometry" />
        </mxCell>
        <mxCell id="0ezOhvrhTtO55987Je5w-51" value="&lt;font style=&quot;font-size: 20px&quot;&gt;склад&lt;/font&gt;" style="shape=cylinder3;whiteSpace=wrap;html=1;boundedLbl=1;backgroundOutline=1;size=6.5999755859375;rounded=0;shadow=0;glass=0;sketch=0;fontSize=14;strokeWidth=2;fillColor=#d5e8d4;strokeColor=#82b366;" parent="1" vertex="1">
          <mxGeometry x="270" y="380" width="90" height="90" as="geometry" />
        </mxCell>
        <mxCell id="0ezOhvrhTtO55987Je5w-75" style="edgeStyle=orthogonalEdgeStyle;rounded=0;orthogonalLoop=1;jettySize=auto;html=1;entryX=0;entryY=0;entryDx=0;entryDy=127.5;entryPerimeter=0;labelBackgroundColor=none;fontSize=14;fontColor=#000000;fillColor=#96F5FF;strokeWidth=3;" parent="1" source="0ezOhvrhTtO55987Je5w-52" target="0ezOhvrhTtO55987Je5w-61" edge="1">
          <mxGeometry relative="1" as="geometry">
            <Array as="points">
              <mxPoint x="410" y="580" />
              <mxPoint x="410" y="462" />
            </Array>
          </mxGeometry>
        </mxCell>
        <mxCell id="0ezOhvrhTtO55987Je5w-52" value="&lt;font style=&quot;font-size: 20px&quot;&gt;CRM&lt;/font&gt;" style="shape=cylinder3;whiteSpace=wrap;html=1;boundedLbl=1;backgroundOutline=1;size=6.5999755859375;rounded=0;shadow=0;glass=0;sketch=0;fontSize=14;strokeWidth=2;fillColor=#e1d5e7;strokeColor=#9673a6;" parent="1" vertex="1">
          <mxGeometry x="270" y="535" width="90" height="90" as="geometry" />
        </mxCell>
        <mxCell id="0ezOhvrhTtO55987Je5w-56" value="&lt;font style=&quot;font-size: 30px&quot;&gt;Customer&lt;/font&gt;" style="text;html=1;align=center;verticalAlign=middle;resizable=0;points=[];autosize=1;strokeColor=none;fontSize=14;fontColor=#000000;" parent="1" vertex="1">
          <mxGeometry x="41.11" y="160" width="150" height="30" as="geometry" />
        </mxCell>
        <mxCell id="0ezOhvrhTtO55987Je5w-60" value="&lt;font style=&quot;font-size: 40px;&quot;&gt;Storage&lt;/font&gt;" style="text;html=1;align=center;verticalAlign=middle;resizable=0;points=[];autosize=1;strokeColor=none;fontSize=40;" parent="1" vertex="1">
          <mxGeometry x="500" y="75" width="160" height="50" as="geometry" />
        </mxCell>
        <mxCell id="0ezOhvrhTtO55987Je5w-61" value="&lt;font style=&quot;font-size: 17px&quot;&gt;&lt;b&gt;DW&lt;/b&gt;&lt;/font&gt;&lt;br&gt;Staging /&lt;br&gt;Business Layer" style="shape=cylinder3;whiteSpace=wrap;html=1;boundedLbl=1;backgroundOutline=1;size=15;rounded=0;shadow=0;glass=0;sketch=0;fontSize=14;fontColor=#000000;strokeWidth=2;fillColor=#EDFFB3;gradientColor=none;" parent="1" vertex="1">
          <mxGeometry x="500" y="335" width="150" height="180" as="geometry" />
        </mxCell>
        <mxCell id="0ezOhvrhTtO55987Je5w-101" style="edgeStyle=orthogonalEdgeStyle;rounded=0;orthogonalLoop=1;jettySize=auto;html=1;labelBackgroundColor=none;fontSize=20;fontColor=#000000;strokeWidth=2;fillColor=#96F5FF;verticalAlign=middle;" parent="1" source="0ezOhvrhTtO55987Je5w-66" edge="1">
          <mxGeometry relative="1" as="geometry">
            <mxPoint x="385" y="270" as="targetPoint" />
          </mxGeometry>
        </mxCell>
        <mxCell id="0ezOhvrhTtO55987Je5w-66" value="&lt;font style=&quot;font-size: 20px;&quot;&gt;&lt;span style=&quot;font-size: 20px;&quot;&gt;&lt;span style=&quot;font-size: 20px;&quot;&gt;ETL&lt;/span&gt;&lt;/span&gt;&lt;/font&gt;" style="text;html=1;align=center;verticalAlign=middle;resizable=0;points=[];autosize=1;strokeColor=none;fontSize=20;fontColor=#000000;fillColor=#ffffff;strokeWidth=3;fontStyle=1" parent="1" vertex="1">
          <mxGeometry x="360" y="180" width="50" height="30" as="geometry" />
        </mxCell>
        <mxCell id="0ezOhvrhTtO55987Je5w-68" value="&lt;font style=&quot;font-size: 40px&quot;&gt;Business&lt;/font&gt;" style="text;html=1;align=center;verticalAlign=middle;resizable=0;points=[];autosize=1;strokeColor=none;fontSize=25;" parent="1" vertex="1">
          <mxGeometry x="825" y="80" width="180" height="40" as="geometry" />
        </mxCell>
        <mxCell id="0ezOhvrhTtO55987Je5w-77" value="&lt;font style=&quot;font-size: 15px&quot;&gt;Finance Department&lt;/font&gt;" style="outlineConnect=0;strokeColor=#C73500;dashed=0;verticalLabelPosition=bottom;verticalAlign=top;align=center;html=1;fontSize=12;fontStyle=0;aspect=fixed;shape=mxgraph.aws4.illustration_users;pointerEvents=1;rounded=0;shadow=0;glass=0;sketch=0;fillColor=#fa6800;fontColor=#000000;" parent="1" vertex="1">
          <mxGeometry x="960" y="235" width="90" height="90" as="geometry" />
        </mxCell>
        <mxCell id="0ezOhvrhTtO55987Je5w-78" value="&lt;font color=&quot;#000000&quot; style=&quot;font-size: 15px&quot;&gt;Marketing Department&lt;/font&gt;" style="outlineConnect=0;fontColor=#ffffff;strokeColor=#001DBC;dashed=0;verticalLabelPosition=bottom;verticalAlign=top;align=center;html=1;fontSize=12;fontStyle=0;aspect=fixed;shape=mxgraph.aws4.illustration_users;pointerEvents=1;rounded=0;shadow=0;glass=0;sketch=0;fillColor=#0050ef;" parent="1" vertex="1">
          <mxGeometry x="960" y="380" width="90" height="90" as="geometry" />
        </mxCell>
        <mxCell id="0ezOhvrhTtO55987Je5w-79" value="&lt;font color=&quot;#000000&quot; style=&quot;font-size: 15px&quot;&gt;Other Departments&lt;/font&gt;" style="outlineConnect=0;strokeColor=#005700;dashed=0;verticalLabelPosition=bottom;verticalAlign=top;align=center;html=1;fontSize=12;fontStyle=0;aspect=fixed;shape=mxgraph.aws4.illustration_users;pointerEvents=1;rounded=0;shadow=0;glass=0;sketch=0;fillColor=#008a00;fontColor=#ffffff;" parent="1" vertex="1">
          <mxGeometry x="960" y="520" width="90" height="90" as="geometry" />
        </mxCell>
        <mxCell id="0ezOhvrhTtO55987Je5w-93" style="edgeStyle=orthogonalEdgeStyle;rounded=0;orthogonalLoop=1;jettySize=auto;html=1;entryX=1;entryY=0;entryDx=0;entryDy=52.5;entryPerimeter=0;labelBackgroundColor=none;fontSize=30;fontColor=#000000;fillColor=#96F5FF;strokeWidth=3;" parent="1" source="0ezOhvrhTtO55987Je5w-87" target="0ezOhvrhTtO55987Je5w-61" edge="1">
          <mxGeometry relative="1" as="geometry">
            <Array as="points">
              <mxPoint x="690" y="245" />
              <mxPoint x="690" y="387" />
            </Array>
          </mxGeometry>
        </mxCell>
        <mxCell id="0ezOhvrhTtO55987Je5w-87" value="&lt;b&gt;&lt;font style=&quot;font-size: 50px&quot;&gt;SQL&lt;/font&gt;&lt;/b&gt;" style="text;html=1;align=center;verticalAlign=middle;resizable=0;points=[];autosize=1;strokeColor=none;fontSize=30;fontColor=#000000;" parent="1" vertex="1">
          <mxGeometry x="755" y="220" width="120" height="50" as="geometry" />
        </mxCell>
        <mxCell id="0ezOhvrhTtO55987Je5w-94" style="edgeStyle=orthogonalEdgeStyle;rounded=0;orthogonalLoop=1;jettySize=auto;html=1;entryX=1;entryY=0.5;entryDx=0;entryDy=0;entryPerimeter=0;labelBackgroundColor=none;fontSize=30;fontColor=#000000;fillColor=#96F5FF;strokeWidth=3;" parent="1" source="0ezOhvrhTtO55987Je5w-88" target="0ezOhvrhTtO55987Je5w-61" edge="1">
          <mxGeometry relative="1" as="geometry" />
        </mxCell>
        <mxCell id="0ezOhvrhTtO55987Je5w-88" value="" style="shape=image;html=1;verticalAlign=top;verticalLabelPosition=bottom;labelBackgroundColor=#ffffff;imageAspect=0;aspect=fixed;image=https://cdn0.iconfinder.com/data/icons/social-media-logo-4/32/Social_Media_power_bi-128.png;rounded=0;shadow=0;glass=0;sketch=0;fontSize=14;fontColor=#000000;strokeColor=#FFFFFF;strokeWidth=2;fillColor=#EDFFB3;gradientColor=none;" parent="1" vertex="1">
          <mxGeometry x="755" y="365" width="120" height="120" as="geometry" />
        </mxCell>
        <mxCell id="0ezOhvrhTtO55987Je5w-95" style="edgeStyle=orthogonalEdgeStyle;rounded=0;orthogonalLoop=1;jettySize=auto;html=1;entryX=1;entryY=0;entryDx=0;entryDy=127.5;entryPerimeter=0;labelBackgroundColor=none;fontSize=30;fontColor=#000000;fillColor=#96F5FF;strokeWidth=3;" parent="1" source="0ezOhvrhTtO55987Je5w-91" target="0ezOhvrhTtO55987Je5w-61" edge="1">
          <mxGeometry relative="1" as="geometry">
            <Array as="points">
              <mxPoint x="690" y="615" />
              <mxPoint x="690" y="462" />
            </Array>
          </mxGeometry>
        </mxCell>
        <mxCell id="0ezOhvrhTtO55987Je5w-91" value="" style="shape=image;html=1;verticalAlign=top;verticalLabelPosition=bottom;labelBackgroundColor=#ffffff;imageAspect=0;aspect=fixed;image=https://cdn3.iconfinder.com/data/icons/brands-applications/512/Excel_D-128.png;rounded=0;shadow=0;glass=0;sketch=0;fontSize=30;fontColor=#000000;strokeColor=#FFFFFF;strokeWidth=2;fillColor=#EDFFB3;gradientColor=none;" parent="1" vertex="1">
          <mxGeometry x="763" y="559" width="112" height="112" as="geometry" />
        </mxCell>
        <mxCell id="0ezOhvrhTtO55987Je5w-102" value="" style="line;strokeWidth=4;direction=south;html=1;perimeter=backbonePerimeter;points=[];outlineConnect=0;labelBorderColor=#000000;" parent="1" vertex="1">
          <mxGeometry x="430" y="150" width="10" height="570" as="geometry" />
        </mxCell>
        <mxCell id="0ezOhvrhTtO55987Je5w-103" value="" style="line;strokeWidth=4;direction=south;html=1;perimeter=backbonePerimeter;points=[];outlineConnect=0;labelBorderColor=#000000;" parent="1" vertex="1">
          <mxGeometry x="720" y="150" width="10" height="570" as="geometry" />
        </mxCell>
      </root>
    </mxGraphModel>
  </diagram>
</mxfile>
